<mxfile host="app.diagrams.net" modified="2024-03-21T05:17:39.803Z" agent="Mozilla/5.0 (Windows NT 10.0; Win64; x64) AppleWebKit/537.36 (KHTML, like Gecko) Chrome/122.0.0.0 Safari/537.36" etag="dELpty1jqm2xehZUNCf8" version="24.0.7" type="google">
  <diagram id="C5RBs43oDa-KdzZeNtuy" name="Page-1">
    <mxGraphModel grid="1" page="1" gridSize="10" guides="1" tooltips="1" connect="1" arrows="1" fold="1" pageScale="1" pageWidth="827" pageHeight="1169" math="0" shadow="0">
      <root>
        <mxCell id="WIyWlLk6GJQsqaUBKTNV-0" />
        <mxCell id="WIyWlLk6GJQsqaUBKTNV-1" parent="WIyWlLk6GJQsqaUBKTNV-0" />
        <mxCell id="eEuKvRzlONIZrRFVT2-o-1" value="" style="group;movable=0;resizable=0;rotatable=0;deletable=0;editable=0;locked=1;connectable=0;" connectable="0" vertex="1" parent="WIyWlLk6GJQsqaUBKTNV-1">
          <mxGeometry x="450" y="170" width="1657" height="1750" as="geometry" />
        </mxCell>
        <mxCell id="_gN3MFFt-fry-yEMb3th-131" value="A" style="rounded=0;whiteSpace=wrap;html=1;fillColor=#eeeeee;strokeColor=#36393d;container=0;movable=0;resizable=0;rotatable=0;deletable=0;editable=0;locked=1;connectable=0;" vertex="1" parent="eEuKvRzlONIZrRFVT2-o-1">
          <mxGeometry width="1647" height="1200" as="geometry" />
        </mxCell>
        <mxCell id="eEuKvRzlONIZrRFVT2-o-0" value="" style="group;movable=0;resizable=0;rotatable=0;deletable=0;editable=0;locked=1;connectable=0;" connectable="0" vertex="1" parent="eEuKvRzlONIZrRFVT2-o-1">
          <mxGeometry x="20" y="100" width="1653.25" height="1650" as="geometry" />
        </mxCell>
        <mxCell id="_gN3MFFt-fry-yEMb3th-49" value="" style="rounded=1;whiteSpace=wrap;html=1;fillColor=#f9f7ed;strokeColor=#36393d;container=0;movable=0;resizable=0;rotatable=0;deletable=0;editable=0;locked=1;connectable=0;" vertex="1" parent="eEuKvRzlONIZrRFVT2-o-0">
          <mxGeometry x="635.63" y="321" width="681.98" height="320" as="geometry" />
        </mxCell>
        <mxCell id="_gN3MFFt-fry-yEMb3th-104" value="In this data architecture setup, near-real-time data is captured from the source and ingested into Amazon S3 using Kafka. Subsequently, an Airflow pipeline is scheduled to run every hour, transferring the data from S3 to Snowflake. The data undergoes a structured process within Snowflake, initially landing in the Raw Zone. The Raw Zone serves as a staging area where the data is loaded and modeled to closely resemble the structure of the True Source. Notably, the modeling approach employed is Type 6.&#xa;This design ensures a continuous flow of data from the source to S3, providing near-real-time updates. The hourly Airflow job facilitates the efficient transfer of data into Snowflake, where it is structured and modeled in the Raw Zone. The utilization of Type 6 modeling implies that historical changes are tracked over time, allowing for a comprehensive view of data evolution.&#xa;Overall, this architecture demonstrates a well-orchestrated process for handling near-real-time data, leveraging Kafka for ingestion, S3 for storage, and Snowflake for structured modeling and analytics. The Type 6 modeling approach adds a layer of complexity by capturing historical changes, providing a detailed historical perspective on the evolving data.&#xa;In the Raw Zone of your data architecture, the data undergoes tokenization. Tokenization is a process in which sensitive information, such as personally identifiable information (PII) or other confidential data, is replaced with unique tokens. These tokens are random strings that have no direct correlation to the original data, providing a layer of security and privacy.&#xa;By tokenizing data in the Raw Zone, you are taking measures to protect sensitive information at an early stage of the data processing pipeline. This enhances data security and privacy by ensuring that even within the raw, unprocessed data, sensitive details are replaced with tokens.&#xa;This approach is especially valuable in scenarios where it&#39;s crucial to maintain data privacy and comply with regulations. It allows you to perform various data processing tasks and analytics while minimizing the risk associated with handling sensitive information directly.&#xa;In summary, tokenizing data in the Raw Zone is a proactive security measure, aligning with best practices for data privacy and security in your data architecture.&#xa; &#xa;Your data architecture extends the processing flow from the Raw Zone to the Prepared Zone, following a star model approach. In this stage, data is organized into dimensions and facts, adhering to the principles of a star schema. The movement of data from the Raw Zone to the Prepared Zone is orchestrated by Airflow, emphasizing the automation and scheduling capabilities of the Airflow pipeline.&#xa;The star schema, a common data warehouse design, involves structuring data into a central fact table surrounded by dimension tables. This arrangement simplifies queries and supports efficient reporting and analytics.&#xa;In your architecture:&#xa;    1. Raw Zone: Initially, data is ingested and tokenized in the Raw Zone, preserving privacy and security. Here, the data is loaded and modeled similarly to the True Source, incorporating Type 6 modeling for historical tracking.&#xa;    2. Prepared Zone: Airflow is responsible for the movement of data from the Raw Zone to the Prepared Zone. Within the Prepared Zone, the data is organized into dimensions and facts following a star model. This separation facilitates optimized querying and reporting.&#xa;    3. Star Model: The star model architecture enhances query performance by structuring data into a central fact table containing key performance indicators, surrounded by dimension tables providing context to the facts.&#xa;    4. Airflow Automation: The use of Apache Airflow ensures the reliable and automated execution of data movement tasks from the Raw Zone to the Prepared Zone. Airflow&#39;s scheduling capabilities enable periodic data transfers, maintaining the currency of your analytics data.&#xa;This design reflects a well-orchestrated data processing flow, integrating security measures in the Raw Zone, structuring data according to a star model in the Prepared Zone, and leveraging Airflow for automated and scheduled data movements. It aligns with best practices for building efficient and secure data pipelines in a data warehouse environment." style="text;whiteSpace=wrap;fontFamily=Helvetica;fontStyle=0;fontSize=25;shadow=0;textShadow=0;container=0;strokeWidth=2;movable=0;resizable=0;rotatable=0;deletable=0;editable=0;locked=1;connectable=0;" vertex="1" parent="eEuKvRzlONIZrRFVT2-o-0">
          <mxGeometry y="1120" width="1653.25" height="530" as="geometry" />
        </mxCell>
        <mxCell id="_gN3MFFt-fry-yEMb3th-109" value="" style="rounded=0;whiteSpace=wrap;html=1;hachureGap=4;fontFamily=Architects Daughter;fontSource=https%3A%2F%2Ffonts.googleapis.com%2Fcss%3Ffamily%3DArchitects%2BDaughter;container=0;movable=0;resizable=0;rotatable=0;deletable=0;editable=0;locked=1;connectable=0;" vertex="1" parent="eEuKvRzlONIZrRFVT2-o-0">
          <mxGeometry x="73.25" y="780" width="390" height="200" as="geometry" />
        </mxCell>
        <mxCell id="_gN3MFFt-fry-yEMb3th-110" value="&lt;font style=&quot;font-size: 14px;&quot; face=&quot;Helvetica&quot;&gt;&lt;b style=&quot;&quot;&gt;Highly Confidential&lt;/b&gt;&lt;/font&gt;&lt;div style=&quot;font-size: 14px;&quot;&gt;&lt;font style=&quot;font-size: 14px;&quot; face=&quot;o5JzMc6KrtbrpWa3MFPb&quot;&gt;&lt;b style=&quot;&quot;&gt;Data&lt;/b&gt;&lt;/font&gt;&lt;/div&gt;" style="rounded=1;whiteSpace=wrap;html=1;hachureGap=4;fontFamily=Architects Daughter;fontSource=https%3A%2F%2Ffonts.googleapis.com%2Fcss%3Ffamily%3DArchitects%2BDaughter;fillColor=#fad9d5;strokeColor=#ae4132;container=0;movable=0;resizable=0;rotatable=0;deletable=0;editable=0;locked=1;connectable=0;" vertex="1" parent="eEuKvRzlONIZrRFVT2-o-0">
          <mxGeometry x="116.25" y="830" width="130" height="70" as="geometry" />
        </mxCell>
        <mxCell id="_gN3MFFt-fry-yEMb3th-111" value="&lt;font style=&quot;font-size: 14px;&quot; face=&quot;Helvetica&quot;&gt;&lt;b style=&quot;&quot;&gt;Tokenized&lt;/b&gt;&lt;/font&gt;&lt;div style=&quot;font-size: 14px;&quot;&gt;&lt;font style=&quot;font-size: 14px;&quot; face=&quot;Helvetica&quot;&gt;&lt;b style=&quot;&quot;&gt;Data&lt;/b&gt;&lt;/font&gt;&lt;/div&gt;" style="rounded=1;whiteSpace=wrap;html=1;hachureGap=4;fontFamily=Architects Daughter;fontSource=https%3A%2F%2Ffonts.googleapis.com%2Fcss%3Ffamily%3DArchitects%2BDaughter;fillColor=#b1ddf0;strokeColor=#10739e;container=0;movable=0;resizable=0;rotatable=0;deletable=0;editable=0;locked=1;connectable=0;" vertex="1" parent="eEuKvRzlONIZrRFVT2-o-0">
          <mxGeometry x="293.25" y="830" width="130" height="70" as="geometry" />
        </mxCell>
        <mxCell id="_gN3MFFt-fry-yEMb3th-112" value="" style="endArrow=none;dashed=1;html=1;dashPattern=1 3;strokeWidth=2;rounded=0;movable=0;resizable=0;rotatable=0;deletable=0;editable=0;locked=1;connectable=0;" edge="1" parent="eEuKvRzlONIZrRFVT2-o-0">
          <mxGeometry width="50" height="50" relative="1" as="geometry">
            <mxPoint x="123.25" y="950" as="sourcePoint" />
            <mxPoint x="413.25" y="950" as="targetPoint" />
            <Array as="points">
              <mxPoint x="403.25" y="950" />
            </Array>
          </mxGeometry>
        </mxCell>
        <mxCell id="_gN3MFFt-fry-yEMb3th-113" value="&lt;b&gt;&lt;font style=&quot;font-size: 14px;&quot;&gt;&amp;nbsp; Read Only Access&amp;nbsp;&amp;nbsp;&lt;/font&gt;&lt;/b&gt;" style="edgeLabel;html=1;align=center;verticalAlign=middle;resizable=0;points=[];container=0;movable=0;rotatable=0;deletable=0;editable=0;locked=1;connectable=0;" connectable="0" vertex="1" parent="_gN3MFFt-fry-yEMb3th-112">
          <mxGeometry x="0.319" y="-3" relative="1" as="geometry">
            <mxPoint x="-56" y="-6" as="offset" />
          </mxGeometry>
        </mxCell>
        <mxCell id="_gN3MFFt-fry-yEMb3th-114" value="&lt;b&gt;&lt;font style=&quot;font-size: 16px;&quot;&gt;LEGEND&lt;/font&gt;&lt;/b&gt;" style="text;html=1;align=center;verticalAlign=middle;resizable=0;points=[];autosize=1;strokeColor=none;fillColor=none;container=0;movable=0;rotatable=0;deletable=0;editable=0;locked=1;connectable=0;" vertex="1" parent="eEuKvRzlONIZrRFVT2-o-0">
          <mxGeometry x="64.25" y="749" width="90" height="30" as="geometry" />
        </mxCell>
        <mxCell id="_gN3MFFt-fry-yEMb3th-116" value="&lt;b style=&quot;font-size: 14px;&quot;&gt;&lt;font style=&quot;font-size: 14px;&quot;&gt;Ingested Data&lt;/font&gt;&lt;/b&gt;&lt;div style=&quot;font-size: 14px;&quot;&gt;&lt;font style=&quot;font-size: 14px;&quot;&gt;Transient storage of&amp;nbsp;&lt;/font&gt;&lt;/div&gt;&lt;div style=&quot;font-size: 14px;&quot;&gt;&lt;font style=&quot;font-size: 14px;&quot;&gt;data as-is from the the&amp;nbsp;&lt;/font&gt;&lt;/div&gt;&lt;div style=&quot;font-size: 14px;&quot;&gt;&lt;font style=&quot;font-size: 14px;&quot;&gt;source (CDC reocrds in&amp;nbsp;&lt;/font&gt;&lt;/div&gt;&lt;div style=&quot;font-size: 14px;&quot;&gt;&lt;font style=&quot;font-size: 14px;&quot;&gt;JSON format)&lt;/font&gt;&lt;/div&gt;&lt;div style=&quot;font-size: 14px;&quot;&gt;&lt;font style=&quot;font-size: 14px;&quot;&gt;Contains highly-&lt;/font&gt;&lt;/div&gt;&lt;div style=&quot;font-size: 14px;&quot;&gt;&lt;font style=&quot;font-size: 14px;&quot;&gt;confidential data&lt;/font&gt;&lt;/div&gt;" style="text;html=1;align=center;verticalAlign=middle;resizable=0;points=[];autosize=1;strokeColor=none;fillColor=none;container=0;movable=0;rotatable=0;deletable=0;editable=0;locked=1;connectable=0;" vertex="1" parent="eEuKvRzlONIZrRFVT2-o-0">
          <mxGeometry x="563.25" y="653" width="170" height="130" as="geometry" />
        </mxCell>
        <mxCell id="_gN3MFFt-fry-yEMb3th-117" value="&lt;div style=&quot;font-size: 14px;&quot;&gt;&lt;div style=&quot;&quot;&gt;&lt;b&gt;Source Aligned Data&lt;/b&gt;&lt;div&gt;Organized and modeled&amp;nbsp;&lt;/div&gt;&lt;div&gt;from source system with&amp;nbsp;&lt;/div&gt;&lt;div&gt;historical changes&amp;nbsp;&lt;/div&gt;&lt;div&gt;preserved data&amp;nbsp;&lt;/div&gt;&lt;div&gt;Scientists and ad-hoc&lt;/div&gt;&lt;div&gt;exporation highly-&lt;/div&gt;&lt;div&gt;confidential data has been tokenized.&lt;/div&gt;&lt;/div&gt;&lt;/div&gt;" style="text;html=1;align=center;verticalAlign=middle;resizable=0;points=[];autosize=1;strokeColor=none;fillColor=none;container=0;movable=0;rotatable=0;deletable=0;editable=0;locked=1;connectable=0;" vertex="1" parent="eEuKvRzlONIZrRFVT2-o-0">
          <mxGeometry x="731.6199999999999" y="658" width="250" height="150" as="geometry" />
        </mxCell>
        <mxCell id="_gN3MFFt-fry-yEMb3th-118" value="&lt;b style=&quot;font-size: 14px;&quot;&gt;&lt;font style=&quot;font-size: 14px;&quot;&gt;General Consumption&lt;/font&gt;&lt;/b&gt;&lt;div style=&quot;font-size: 14px;&quot;&gt;&lt;font style=&quot;font-size: 14px;&quot;&gt;Organized by enterprise&amp;nbsp;&lt;/font&gt;&lt;/div&gt;&lt;div style=&quot;font-size: 14px;&quot;&gt;&lt;font style=&quot;font-size: 14px;&quot;&gt;subject areas and build&lt;/font&gt;&lt;/div&gt;&lt;div style=&quot;font-size: 14px;&quot;&gt;&lt;font style=&quot;font-size: 14px;&quot;&gt;for general consumption&lt;/font&gt;&lt;/div&gt;&lt;div style=&quot;font-size: 14px;&quot;&gt;&lt;font style=&quot;font-size: 14px;&quot;&gt;across fidelity&lt;/font&gt;&lt;/div&gt;" style="text;html=1;align=center;verticalAlign=middle;resizable=0;points=[];autosize=1;strokeColor=none;fillColor=none;container=0;movable=0;rotatable=0;deletable=0;editable=0;locked=1;connectable=0;" vertex="1" parent="eEuKvRzlONIZrRFVT2-o-0">
          <mxGeometry x="1008.25" y="675" width="180" height="100" as="geometry" />
        </mxCell>
        <mxCell id="_gN3MFFt-fry-yEMb3th-80" value="" style="rounded=1;whiteSpace=wrap;html=1;hachureGap=4;fontFamily=Architects Daughter;fontSource=https%3A%2F%2Ffonts.googleapis.com%2Fcss%3Ffamily%3DArchitects%2BDaughter;fillColor=#ffff88;strokeColor=#36393d;container=0;movable=0;resizable=0;rotatable=0;deletable=0;editable=0;locked=1;connectable=0;" vertex="1" parent="eEuKvRzlONIZrRFVT2-o-0">
          <mxGeometry x="788.25" y="386.68000000000006" width="501" height="233.32" as="geometry" />
        </mxCell>
        <mxCell id="_gN3MFFt-fry-yEMb3th-119" value="&lt;b style=&quot;font-size: 14px;&quot;&gt;&lt;font style=&quot;font-size: 14px;&quot;&gt;Purpose Built&lt;/font&gt;&lt;/b&gt;&lt;div style=&quot;font-size: 14px;&quot;&gt;&lt;font style=&quot;font-size: 14px;&quot;&gt;Data sets built for a&amp;nbsp;&lt;/font&gt;&lt;/div&gt;&lt;div style=&quot;font-size: 14px;&quot;&gt;&lt;font style=&quot;font-size: 14px;&quot;&gt;specific purpose or&lt;/font&gt;&lt;/div&gt;&lt;div style=&quot;font-size: 14px;&quot;&gt;&lt;font style=&quot;font-size: 14px;&quot;&gt;use case (e.g. AI&lt;/font&gt;&lt;/div&gt;&lt;div style=&quot;font-size: 14px;&quot;&gt;&lt;font style=&quot;font-size: 14px;&quot;&gt;model-ready data.&lt;/font&gt;&lt;/div&gt;&lt;div style=&quot;font-size: 14px;&quot;&gt;&lt;font style=&quot;font-size: 14px;&quot;&gt;special aggregates)&lt;/font&gt;&lt;/div&gt;" style="text;html=1;align=center;verticalAlign=middle;resizable=0;points=[];autosize=1;strokeColor=none;fillColor=none;container=0;movable=0;rotatable=0;deletable=0;editable=0;locked=1;connectable=0;" vertex="1" parent="eEuKvRzlONIZrRFVT2-o-0">
          <mxGeometry x="1253.25" y="644" width="150" height="110" as="geometry" />
        </mxCell>
        <mxCell id="_gN3MFFt-fry-yEMb3th-122" value="" style="endArrow=none;dashed=1;html=1;dashPattern=1 3;strokeWidth=2;rounded=0;exitX=0.442;exitY=-0.008;exitDx=0;exitDy=0;exitPerimeter=0;entryX=0.25;entryY=1;entryDx=0;entryDy=0;strokeColor=#8F8F8F;movable=0;resizable=0;rotatable=0;deletable=0;editable=0;locked=1;connectable=0;" edge="1" parent="eEuKvRzlONIZrRFVT2-o-0" source="_gN3MFFt-fry-yEMb3th-116" target="_gN3MFFt-fry-yEMb3th-50">
          <mxGeometry width="50" height="50" relative="1" as="geometry">
            <mxPoint x="613.25" y="630" as="sourcePoint" />
            <mxPoint x="663.25" y="580" as="targetPoint" />
          </mxGeometry>
        </mxCell>
        <mxCell id="_gN3MFFt-fry-yEMb3th-123" value="" style="endArrow=none;dashed=1;html=1;dashPattern=1 3;strokeWidth=2;rounded=0;entryX=0.25;entryY=1;entryDx=0;entryDy=0;exitX=0.343;exitY=0.012;exitDx=0;exitDy=0;exitPerimeter=0;strokeColor=#8F8F8F;movable=0;resizable=0;rotatable=0;deletable=0;editable=0;locked=1;connectable=0;" edge="1" parent="eEuKvRzlONIZrRFVT2-o-0" source="_gN3MFFt-fry-yEMb3th-117" target="_gN3MFFt-fry-yEMb3th-52">
          <mxGeometry width="50" height="50" relative="1" as="geometry">
            <mxPoint x="803.25" y="660" as="sourcePoint" />
            <mxPoint x="853.25" y="610" as="targetPoint" />
          </mxGeometry>
        </mxCell>
        <mxCell id="_gN3MFFt-fry-yEMb3th-124" value="" style="endArrow=none;dashed=1;html=1;dashPattern=1 4;strokeWidth=2;rounded=0;entryX=0.75;entryY=1;entryDx=0;entryDy=0;exitX=0.517;exitY=0.024;exitDx=0;exitDy=0;exitPerimeter=0;strokeColor=#8F8F8F;movable=0;resizable=0;rotatable=0;deletable=0;editable=0;locked=1;connectable=0;" edge="1" parent="eEuKvRzlONIZrRFVT2-o-0" source="_gN3MFFt-fry-yEMb3th-118" target="_gN3MFFt-fry-yEMb3th-53">
          <mxGeometry width="50" height="50" relative="1" as="geometry">
            <mxPoint x="1093.25" y="690" as="sourcePoint" />
            <mxPoint x="1143.25" y="640" as="targetPoint" />
          </mxGeometry>
        </mxCell>
        <mxCell id="_gN3MFFt-fry-yEMb3th-125" value="" style="endArrow=none;dashed=1;html=1;dashPattern=1 3;strokeWidth=2;rounded=0;entryX=1;entryY=1;entryDx=0;entryDy=0;exitX=0.567;exitY=-0.031;exitDx=0;exitDy=0;exitPerimeter=0;strokeColor=#8F8F8F;movable=0;resizable=0;rotatable=0;deletable=0;editable=0;locked=1;connectable=0;" edge="1" parent="eEuKvRzlONIZrRFVT2-o-0" source="_gN3MFFt-fry-yEMb3th-119" target="_gN3MFFt-fry-yEMb3th-54">
          <mxGeometry width="50" height="50" relative="1" as="geometry">
            <mxPoint x="1223.25" y="710" as="sourcePoint" />
            <mxPoint x="1273.25" y="660" as="targetPoint" />
          </mxGeometry>
        </mxCell>
        <mxCell id="_gN3MFFt-fry-yEMb3th-129" value="&lt;b&gt;&lt;font style=&quot;font-size: 18px;&quot;&gt;DATA INGESTION&lt;/font&gt;&lt;/b&gt;" style="text;html=1;align=center;verticalAlign=middle;resizable=0;points=[];autosize=1;strokeColor=none;fillColor=none;container=0;movable=0;rotatable=0;deletable=0;editable=0;locked=1;connectable=0;" vertex="1" parent="eEuKvRzlONIZrRFVT2-o-0">
          <mxGeometry x="73.25" y="1010" width="170" height="40" as="geometry" />
        </mxCell>
        <mxCell id="_gN3MFFt-fry-yEMb3th-84" style="edgeStyle=orthogonalEdgeStyle;rounded=0;hachureGap=4;orthogonalLoop=1;jettySize=auto;html=1;exitX=1;exitY=0.5;exitDx=0;exitDy=0;fontFamily=Architects Daughter;fontSource=https%3A%2F%2Ffonts.googleapis.com%2Fcss%3Ffamily%3DArchitects%2BDaughter;flowAnimation=1;entryX=0;entryY=0.5;entryDx=0;entryDy=0;movable=0;resizable=0;rotatable=0;deletable=0;editable=0;locked=1;connectable=0;" edge="1" parent="eEuKvRzlONIZrRFVT2-o-0" source="_gN3MFFt-fry-yEMb3th-49" target="_gN3MFFt-fry-yEMb3th-71">
          <mxGeometry relative="1" as="geometry">
            <mxPoint x="1403.25" y="520" as="targetPoint" />
          </mxGeometry>
        </mxCell>
        <mxCell id="_gN3MFFt-fry-yEMb3th-126" value="" style="endArrow=none;dashed=1;html=1;dashPattern=1 3;strokeWidth=2;rounded=0;exitX=1;exitY=0;exitDx=0;exitDy=0;entryX=-0.008;entryY=0.644;entryDx=0;entryDy=0;entryPerimeter=0;strokeColor=#8F8F8F;movable=0;resizable=0;rotatable=0;deletable=0;editable=0;locked=1;connectable=0;" edge="1" parent="eEuKvRzlONIZrRFVT2-o-0" source="_gN3MFFt-fry-yEMb3th-55" target="_gN3MFFt-fry-yEMb3th-120">
          <mxGeometry width="50" height="50" relative="1" as="geometry">
            <mxPoint x="1353.25" y="340" as="sourcePoint" />
            <mxPoint x="1403.25" y="290" as="targetPoint" />
          </mxGeometry>
        </mxCell>
        <mxCell id="_gN3MFFt-fry-yEMb3th-44" style="edgeStyle=orthogonalEdgeStyle;rounded=0;orthogonalLoop=1;jettySize=auto;html=1;entryX=0.5;entryY=1;entryDx=0;entryDy=0;fontFamily=Helvetica;fontSize=12;fontColor=default;fontStyle=1;labelBackgroundColor=none;flowAnimation=1;movable=0;resizable=0;rotatable=0;deletable=0;editable=0;locked=1;connectable=0;" edge="1" parent="eEuKvRzlONIZrRFVT2-o-0" target="_gN3MFFt-fry-yEMb3th-2">
          <mxGeometry relative="1" as="geometry">
            <mxPoint x="213.25" y="493" as="sourcePoint" />
          </mxGeometry>
        </mxCell>
        <mxCell id="_gN3MFFt-fry-yEMb3th-28" value="&lt;font style=&quot;font-size: 15px;&quot;&gt;Source Data&lt;/font&gt;" style="swimlane;whiteSpace=wrap;html=1;movable=0;resizable=0;rotatable=0;deletable=0;editable=0;locked=1;connectable=0;container=0;" vertex="1" parent="eEuKvRzlONIZrRFVT2-o-0">
          <mxGeometry x="77.25" y="366" width="140" height="250" as="geometry">
            <mxRectangle y="5.684341886080802e-14" width="140" height="30" as="alternateBounds" />
          </mxGeometry>
        </mxCell>
        <mxCell id="_gN3MFFt-fry-yEMb3th-47" style="edgeStyle=orthogonalEdgeStyle;rounded=0;orthogonalLoop=1;jettySize=auto;html=1;fontFamily=Helvetica;fontSize=12;fontColor=default;fontStyle=1;labelBackgroundColor=none;flowAnimation=1;movable=0;resizable=0;rotatable=0;deletable=0;editable=0;locked=1;connectable=0;" edge="1" parent="eEuKvRzlONIZrRFVT2-o-0" target="_gN3MFFt-fry-yEMb3th-45">
          <mxGeometry relative="1" as="geometry">
            <mxPoint x="463.25" y="466" as="sourcePoint" />
          </mxGeometry>
        </mxCell>
        <mxCell id="_gN3MFFt-fry-yEMb3th-48" style="edgeStyle=orthogonalEdgeStyle;rounded=0;orthogonalLoop=1;jettySize=auto;html=1;exitX=1;exitY=0;exitDx=0;exitDy=0;fontFamily=Helvetica;fontSize=12;fontColor=default;fontStyle=1;labelBackgroundColor=none;movable=0;resizable=0;rotatable=0;deletable=0;editable=0;locked=1;connectable=0;" edge="1" parent="eEuKvRzlONIZrRFVT2-o-0" source="_gN3MFFt-fry-yEMb3th-2">
          <mxGeometry relative="1" as="geometry">
            <mxPoint x="461.5403225806451" y="566.5806451612902" as="targetPoint" />
          </mxGeometry>
        </mxCell>
        <mxCell id="_gN3MFFt-fry-yEMb3th-2" value="" style="rounded=0;whiteSpace=wrap;html=1;rotation=90;container=0;movable=0;resizable=0;rotatable=0;deletable=0;editable=0;locked=1;connectable=0;" vertex="1" parent="eEuKvRzlONIZrRFVT2-o-0">
          <mxGeometry x="288.68" y="393.31999999999994" width="195.38" height="150.75" as="geometry" />
        </mxCell>
        <mxCell id="_gN3MFFt-fry-yEMb3th-35" value="&lt;font style=&quot;font-size: 14px;&quot;&gt;Batch&lt;/font&gt;" style="html=1;whiteSpace=wrap;strokeColor=#36393d;align=center;verticalAlign=middle;fontFamily=Helvetica;fontSize=12;fontStyle=1;labelBackgroundColor=none;fillColor=#cce5ff;container=0;movable=0;resizable=0;rotatable=0;deletable=0;editable=0;locked=1;connectable=0;" vertex="1" parent="eEuKvRzlONIZrRFVT2-o-0">
          <mxGeometry x="315.25" y="376" width="140" height="30" as="geometry" />
        </mxCell>
        <mxCell id="_gN3MFFt-fry-yEMb3th-36" value="&lt;font style=&quot;font-size: 14px;&quot;&gt;Incremental&lt;/font&gt;" style="html=1;whiteSpace=wrap;strokeColor=#36393d;align=center;verticalAlign=middle;fontFamily=Helvetica;fontSize=12;fontStyle=1;labelBackgroundColor=none;fillColor=#cce5ff;container=0;movable=0;resizable=0;rotatable=0;deletable=0;editable=0;locked=1;connectable=0;" vertex="1" parent="eEuKvRzlONIZrRFVT2-o-0">
          <mxGeometry x="315.25" y="406" width="140" height="30" as="geometry" />
        </mxCell>
        <mxCell id="_gN3MFFt-fry-yEMb3th-37" value="&lt;font style=&quot;font-size: 14px;&quot;&gt;CDC&lt;/font&gt;" style="html=1;whiteSpace=wrap;strokeColor=#36393d;align=center;verticalAlign=middle;fontFamily=Helvetica;fontSize=12;fontStyle=1;labelBackgroundColor=none;fillColor=#cce5ff;container=0;movable=0;resizable=0;rotatable=0;deletable=0;editable=0;locked=1;connectable=0;" vertex="1" parent="eEuKvRzlONIZrRFVT2-o-0">
          <mxGeometry x="315.25" y="436" width="140" height="30" as="geometry" />
        </mxCell>
        <mxCell id="_gN3MFFt-fry-yEMb3th-38" value="&lt;font style=&quot;font-size: 14px;&quot;&gt;Stream&lt;/font&gt;" style="html=1;whiteSpace=wrap;strokeColor=#36393d;align=center;verticalAlign=middle;fontFamily=Helvetica;fontSize=12;fontStyle=1;labelBackgroundColor=none;fillColor=#cce5ff;container=0;movable=0;resizable=0;rotatable=0;deletable=0;editable=0;locked=1;connectable=0;" vertex="1" parent="eEuKvRzlONIZrRFVT2-o-0">
          <mxGeometry x="315.25" y="466" width="140" height="30" as="geometry" />
        </mxCell>
        <mxCell id="_gN3MFFt-fry-yEMb3th-39" value="&lt;font style=&quot;font-size: 14px;&quot;&gt;API&lt;/font&gt;" style="html=1;whiteSpace=wrap;strokeColor=#36393d;align=center;verticalAlign=middle;fontFamily=Helvetica;fontSize=12;fontStyle=1;labelBackgroundColor=none;fillColor=#cce5ff;container=0;movable=0;resizable=0;rotatable=0;deletable=0;editable=0;locked=1;connectable=0;" vertex="1" parent="eEuKvRzlONIZrRFVT2-o-0">
          <mxGeometry x="315.25" y="496" width="140" height="30" as="geometry" />
        </mxCell>
        <mxCell id="_gN3MFFt-fry-yEMb3th-40" value="&lt;font style=&quot;font-size: 14px;&quot;&gt;File Transfer&lt;/font&gt;" style="html=1;whiteSpace=wrap;strokeColor=#36393d;align=center;verticalAlign=middle;fontFamily=Helvetica;fontSize=12;fontStyle=1;labelBackgroundColor=none;fillColor=#cce5ff;container=0;movable=0;resizable=0;rotatable=0;deletable=0;editable=0;locked=1;connectable=0;" vertex="1" parent="eEuKvRzlONIZrRFVT2-o-0">
          <mxGeometry x="315.25" y="526" width="140" height="30" as="geometry" />
        </mxCell>
        <mxCell id="_gN3MFFt-fry-yEMb3th-45" value="" style="outlineConnect=0;dashed=0;verticalLabelPosition=bottom;verticalAlign=top;align=center;html=1;shape=mxgraph.aws3.s3;fillColor=#E05243;gradientColor=none;container=0;movable=0;resizable=0;rotatable=0;deletable=0;editable=0;locked=1;connectable=0;" vertex="1" parent="eEuKvRzlONIZrRFVT2-o-0">
          <mxGeometry x="543.25" y="436" width="50" height="60" as="geometry" />
        </mxCell>
        <mxCell id="_gN3MFFt-fry-yEMb3th-46" value="S3 External Stage" style="text;strokeColor=none;align=center;fillColor=none;html=1;verticalAlign=middle;whiteSpace=wrap;rounded=0;fontFamily=Helvetica;fontSize=12;fontColor=default;fontStyle=1;labelBackgroundColor=none;container=0;movable=0;resizable=0;rotatable=0;deletable=0;editable=0;locked=1;connectable=0;" vertex="1" parent="eEuKvRzlONIZrRFVT2-o-0">
          <mxGeometry x="513.25" y="496" width="110" height="30" as="geometry" />
        </mxCell>
        <mxCell id="_gN3MFFt-fry-yEMb3th-79" value="" style="shape=image;verticalLabelPosition=bottom;labelBackgroundColor=default;verticalAlign=top;aspect=fixed;imageAspect=0;image=data:image/png,iVBORw0KGgoAAAANSUhEUgAAAWoAAACLCAMAAAB/aSNCAAABs1BMVEX///8Ax9QArUbkOSEBfO5RUE8R4e4E1ln/dVcMtv9OTUxCQUBGRURKSUijo6IAw9HZ2dm3t7Z5eXjKyslpaGc9PDrm5uXDw8NzcnEMuf8Ab+0Ac+35+fnY2NgAeO47OjgAqj1dXFuNjIzw8PBjYmEAvP+UlJMApzDjJgD/c1MAsv+mpqUS5Pecm5sE2k3kNBniFgDuKQCEg4P/bUkGkvR5rfQM1+QDyVNWv3bsg3nyrqj87evjLArpZljmTjuC3OTd9ffm+PrA7fFt2OEFjPIBid4BukydwvbV5fvB2PkE3EcEtWU/uGXl7/0qtFns+PBRl/HG6ND40c7mUD7paFvti4Lul5D0urXrdmr2ycXlQy2Z4+m36+/9kHvzsqz/hGr63duncYyBiLOxaHxzkMHVRz9js7gsKynOjX7MT1Dfg22SfaCymI9UxP9hmc+PpqRHpOF5z/8InvjEV16IaX+RPzMygqtNQTQhh486cndIUEBNODYqoKkDwYZNPkgDvI8I3toDtJ8DorsEynOxzvgLy68CkNQCm8WGtPUCmMkKyKWO6aeo7b3a9+Oz4cGX1al2yo+zAaHfAAAS+0lEQVR4nO2diX/bxpmGIcmQJQAj8QJJSSApHrpCy3Io16fiJI1y+4js2LHVw2nSrttuu1t7t9vubtMkPXbbbG35T945AGJmMAMORuAhQ29/TQQSxPHgwzvfNzNADONUI9Pdw3v33njj008fPrx6/8GDa9c+e/To88+ve6M+jDffHPUeR6+HezuB9pA2sS5c2Ln36dUH1x7dvT6So3hncfH7I9nROHV9c2dGKMweUZ954/61R8Ml/s7iVAZQG9d3JKxD6Aj5hXtXr90dkq9A0plArcDaj/K9zQs37n+Wfny/CUlnA7VxfUaJNQnwzQuH9x+luntMemrxrVQ3OqnyDpVZE9ybD9OjTUhnBbXh3UjCGuHe3Lx6N5Vd+6Qzg9owkrJGtA+vHX+/P/BJZwi1cS8xaxTaD46Zk/RJTy2+nc55nATd20vMemZmb/PBcfYZks4UauMNHdYzmzP6LSRFOluoNVnPXHio6SI06anFdM9l0vWpHuudPa1k5Ic06ayhNh5uarGeuaCRi7CkM4dam/Xm/aR74khPTQ3jdCZaV3VZP0y2nwjp7KEeEeso6QyiNu7rsv6R+j4EpLOI2ngwdNbfF5B+Z5inNLF6cEGP9YwiaxHpjKLWZb2zq8RaSHoxA8O4Ql3TY3249XjwtoWkp6Z+MPyzmkz9WI/11mDWEtJTPxzFaU2kPtNifWNu63F8h8hbEtKL2UWtx/pwbm5rLo61jHRGRnEl0mI9F89aSjpmEKbcam1rnUATrGv9bgx6pMF6C7OWzV+Qk47prq46oFHROf6GVdL52Vh0NznrG3OI9ZaY9dty0vKOvbZrmlZV5/DdE4RagzVGLWH9thz0lLwu7zqWaTbaGkd/olAbd5PW6IdzUtZxMR2D2rSsogO69EflXJldohoHL/wSo27ncp70pxOlz2WTJ+NRz23t8qwHkJbV5TUbbBvAMslSu9GoVEzXtt2gxdu24VKj6gPMVRvwO7CAF1yr2i7B5UbPh+210C+trjGZSsg6QA1Zf85sJ9495HV5C7hlYxvYNbxUds2m49i2YznYHDzTAbYDF13MutKwgO3CL5sILlwX4HWBhVm3AVx0bGBrOf8IlJD1nJj1ANLSutxzrQ4iDFp4sWybpt0tl/PAtPNwed1xWm3Dy9u44Ww3THu73C42Lbw6bE/t7Vy54i8aHcvueka5CuyFYQI7hhQnqnJRDUWxHkhaVsHkHQchLVkuDkyI2saJX861LPivQqOAVyvg77eBg83Bc6yGh1Dj3xptx0TfFm3fWJqWPRxSx1cS1jTqud1gIH0gaWkF0yGMfeIQtdUkX1SJZ/guvADsMg5bsty17TZCDci369h/4D9JHpN37GL6lNJRgknBDOqAtTeQtCytDpyD+AhCHVSAXeDzKlcWeiXLRKid4DoQ9ZM9eKGK6M6wckjl4LpNpNRZs6gJawXSslwPtoc5/Mc6wEFcDkwA4UNOksfpiAswaq48pFFXkG+YcE0o2GxOqllDXT/cmdnb3Bw8I+fGHMf6kRppSa7nmFaTyASoI4RBDSO1gPKJ7XxuHRuIH/qBuKiGqJvBxrQK/RHJu7H5ky+++HLn9QHhvTsXYa1CWpLrFW3TAkSW6Ri0gSwg/624VgG7M0HdT7+NMroFONRVyxkuo7TU/s3a0tLa0k9/9nos6i0e9dzuP6mwFvdWVy3QaxGVLOTNsFn0acL2sm30gN8OwqSijNzYb/hajSflCOp+cm60dcr80WltHmtp7YvYPDtCem7r5ypR/ZZon203bOfKMIBxskfyuQpORVo4mBFL7NVdh8Q8LHRQOsehhvkhqV1KjSeTzHppPtDS/C9iAluA+pcqqIU77QIqVehYjTZCbdmFSmXdNl1Ir+haZj5Xa9kkA/GA5RQqxS5sJJGjc6iNAgDVWrnYAWCSu6FC0lBrP5GyPtSManECYoFG2FWUt2E8QwOpOlDAIp0gLReX3k4pSFAcgL51e+jLBugEP8V1j9eBjagN/18a+WPd6lqbZ7T2hYw1n4Ag1AsKpMUJSKFE9Qx51VIeNYvddg807JKfQ1RKtmv1yrVOFePztpsw8ysU2Z/XSiXSHZWHazvVSU4/fj3Pae2nEtbRVnFuN75Hj0h1ZkKY7L2aipCWs061VRToFUctIC3zEIFVKwW18jT2Vxv1r18ToZ5f+2cB66hVb/1KgbT6fL1yw9YbPT8JkpCGrL+MDoZFrHrrsQpp9UlkXq9XG+bZjlNS0jDB/kWkltGzjyw9iCtXDGkovvcp4h9qRXk2Z7Fziie99C+cXfP+sfuvaqQzOrWaVjxpVDayds2TVilepjI+XY9oEGkY1z/bkfuHKunsPbEY0dOBpOeXfvO61D9U3ePUP1RIcxbCZHlbii3iGP2jnatBkQG1NvxrXPOeCOmlvmRxHb6KiPaPrcdKWR7ROE6v3S25ro3UQOVn7Qn868l4xtEh6aWl1549u3hxH+rixWfP0AdR4FQWQpuHUsepH9QpPG+UKyG11H+w3UCTLrHweEHegX+Np+Z/Or/07OKZer1+xlcd/b2PeXMW8m87fP/HlrpNT6m+ByS/jrQtGT2pAgvKVe4dLTlmX2NG/fQ1yPlMVJA3xM3Q7reM/UZx95cJzEOxUcw38FiuY4m/ruIQVZ7dUQUhaROMFfXTiyLOfd5nLtK0177co/1jSznH84P6LZUjMv3bXTItKRnqik0Y2w6+fGiT40L9tB5HOkobh/WuD/rniUJ6Sq1RrNnB3d4Tfp8MdROvbfdy4UdjQv3+8gDQPm3oJH7CtxcE9e5j5RQvUVC3+nd8QzgsWHUSeHXZxTHNdMaOB7UaaUx7/xkJ7dd3dm7gXDpJc0ikVr64fWcVR26uiqT4PBfGalrRz0aNWp00Ce35pfm1f//tbxFopVEALqiV0o8KhoMjm50AqaVttCHuObtxoP4wCWkEu37xtf/4neOAuV8lNWlEWm1MoITMFeQxazc3eP149UD07hgD6lsJSWP9DrXjv08OekqxUCTm6hrrgnDUUAFdOIdNZcaAWgO0j/o/NUArvsUQ3/Ew98jhPOTYM/4nA/X3BmV5UdWX3/0vmJ/+9x80SCv2M4Ego8ZZmnPcGTMTgfqD5Pax/O5XH70H/vjH38/OXkpKWnHwtoiDGT1rgYEc+7nPZKjbtUo+n6/UUp5QuZ8U9Mr+1+fPnj373u3Vb2ZnE8JW7mbCaDCGNjFtQWfneqdU6hTZ5RJuQNuV9QL8u9OF1wx3SpVILdQs0WqaQtTl7aZrozmCju02F9j9LqBd8IeC+734hruG9s82w39ZSQj6zLfnEenL09OrH5+bnU1EW5k0zTekzp1hA5UwFruM5pu2e66Du6LQNNYm+cuvOxmZItTlqguC/j/4A+D2qND28C741BOVUgBwH+I9PGE+SmbU9eU/nUWgYVBPT09vfDM7mwT2ovLQS5dyjdBLONSkcGeXrY5RdPtlpl32C3K5ONR5l18f0PUo3hp3h5EOBJsNa5xAsS8keD9RUC+/+2cC+uxZSDoMa0Xa6oNcJt0WOkELqYK6lGuEmBKjXneDaMaPhxC54dTYBUF6jnOlyCVzIismCumVbz/yQeOgpsNagfYlddIkUFz6XKJ9TkLUZtNnFRhI1cW267uFQyuKqEs2adlmb6G70LNs8jM3z+yDe3sG6YC0TOZDXIC5dLOaxKlXwpAmQQ11+9wsq0sy3JdmEwzctpi6hVQzkT4nMWqCyu7gDhIYjl4FqUhqz4UKLVIdUahr5Iawq4EZFJtkOKHRtwyM1aUPJdgtYyse9g/G1PcTmMcfQtCoUSRh/VeetYj3pUvwwwSk8YFS7texordtDGq7Gp3ip5Tskfh06ZcstEg3Vf95PXx5GDNb8FsG5pUauAOH+UQ9p67Xv6JI+/6B7FpAOiR+CUMmimPLiaTSTekykQy1K3ofhQpq0vvHPUna69dSWLiNBvSAZtAYMI9P4tuSaSmVC8X6/mWadOAfEPVXorAWSMpVIBLFFDGS+nGpqwS1+KFbFdQYWqRYIk7ct2e+M5akGnxiQnol6c2oOvXK/zCgw6COtIxpkPa9mWpTWqI+JzFqrnkKpIA6R2yLNx8S6/0Wrmex8doF6EKgpoByOHwozPF+qIh6+X8/YkiHQY2UNmk/4yhQn9REfU5i1JIBMAXUXSC8Uh7ZbJBc8y6M7kCQx8DD+2Eh4uiK/hEhfZkmrWIhMqhiCfJoJs/2JUZti6crKaAmVWm0u7bKfE5yi74v4zvQLeN/hfchqXTojagF9QpPmvYPbCGDWMuYiiWqDknEsfmsBLX48UQF1E1hnhPcZP19V5mMGW0DNdgm7SC4W4EpBNT8Y+XvPGnWP+KzkOSk/Shin35pNxjDxEobNZtqcKuF+Q9bByKTRnayAKjLQVah78G/qfhH/d3zPOnLPOqPY8NaDlUocU9eNdrnlDJqT9SVgVRkkw6SchSog0XHincelDZ4Z0zJta8S1PXLPGnOPxDrr2NYx2EViXgFn3IJXCVt1K7E6kmbHL7rAhuNHW6CBDzdmLj8GSgNKS5/HQlq3j+kRaMWab8FjFimHcnERos6TH/o9ALdbGQLyNH9WMdhwZyBilXXo0YtQi1vGuVIJeJjiDlBQDc1KaNuq6KmkmZ8eUhpRTkILt4ZB1RJ9Vai9hGx6jjWMUwlIoWwWahywv1FjAGOK6qxV5D8GyXZQSYO+g4CTI2upvqfovYRtWri1yLWingpeUGHcUT4Y/q2HFmzyDcTYdSirQa5EvoU33Uk6pkWXMGql/8cJS3yDwlrjTdw5KlJ0ALRwZJ2sudEWgMiXB/SVWTfi/HVCS4ODn5UtnQjXU0fKFj1vsCpZaijbaPOu046AwZNqD6ntFGTia3RWRD04BuR7X9ALkLwKVpArSXpLKO3oDDUVf+7wD+EVk1Yf3fuuKRJT5PAPgILoQrntFGT0YNoD2wrMgiEu5xgE4jalbDWQuuBFmlemW5WlVZRiFps1cRDPp4NYWv9p1jXyXTIkkj+DOn+ummjXhcU/0ikkYh0/MP4txnHwQ7ikC/ZonN/sH8IDSQG9fTq6nc+7HN6/9Fbh4tcWiQbC+/wtFFX2N5SbrO0h3skcDFbqrnEjHO9SFeTSqt4ZvlblQKGgT393Tfnzp375qXwhAfJP1vJs4S4OA/DLm3UJAUB/KtHCsS4okditiw2LLCDrOODpHuAjVsqfU31W/8XYR2PGsLemP749sbGFTGueBGYHcm3XNiljToY22IvdFF0AfyJ8Vy041UFT40o1Yq3DCPCehDqgPhNCbAY+RYhfbqFnHXgmqmjJm2yZdEW4u+Es5Vy/4kGJtPoD9mzq7+v0CreQivyrBVRT6/elhGTqkvmrUtTF7/RZClwVI6B2n/6xgLhank72igiBWO3bKbhV7p8Z9ngBISQNox/MKzlud7xWeO7D8ifry0zo3/po/b8x/fsTj7X9tq5rj8NJPriyWBGAptpFP2w5q7MJ4NQr9wKVmVYq6NOzLoWbes54eog6HNKHzV+0S0OS8d24f/8qWSWGdlmMBGCG+4Uzb4ZPINs5YNw3X8IJtsosZ6+I8cWVU88jsrDCRxmCKiNskU/s+vHaFOwSUvgH4GD8KcwINejSTOsk6BOyNoV2iItD497+e2mPxmh/2VtIGp7IGrD67ksbNAQZvmk2XC54bGKKF0ZMC7AkjaMF+e1UCdjbeIXSMTW8+uN8L0SbfR3IyyY8bIryRS38cpsHiF+SUWuh5zDslDvALDtljjJb6NjdSMe3sSnwO4mvrNp+QN+G33WyVAnYu3VcrnagJ4T/J9ooNanO9Da3DL/w8jzFuVaTvTqFa+4UECPGZR6XfnLQjzqQLjj404hdgpqlLRhHNATqxPBTuTXr6Di0moR6ZB1UtSZZx0zMUFM2jCen9dDnXXW8gpm+UPZbwjruJ49iTaej/LUJk3SCkZOGrLWaBdPWe9rkPbjWgP19MbBqE5s8iQJ6njShnFHE3WWWYsrmOW/DPrdHT0HyTBrT4h6MGnMWgv19MaL4Z/WJEpYl6uQRqw1cpAMsxYNd6mRRqxXT1mrS9AFsvy+8q/fO2WtrujIYgLShnFbl/XR0M5oYhVBnYj0KesE4jv2EpI2jJunrBXFdewlJm0YVzZOWSuJRb38N41NHOmy1pv4dGLF9KGu6JA2jINVPRPJGGsatSZpWHJqmki2WFPd1dqkoQ6mtWBninWIeuV7x9rQCy3Yq1qTJ0+m+qiPSdrAsJN7doZYB4MwxycNdXAlOezssPZRp0Ia6s7R7aS0M8OaoE6LNNKdo5sbibI/nQnYJ1GfYNKfpLvROy9eTifArTEB+yRqfwiksSDumxuQtwrwbLDeHxJpoucvjq5Mbwwmvnpb59nGE6b9M/Xhkfb1/ODo5ZXbqxuEuZD66vSwD2L8+mR56KT7uvP84MXRy5dXbhLsvjD91Y1Xf46ZN2C+x9B0B+r5wcHBC6Sjo6zOWDhV+vp/CZbNZMTKfGcAAAAASUVORK5CYII=;container=0;movable=0;resizable=0;rotatable=0;deletable=0;editable=0;locked=1;connectable=0;" vertex="1" parent="eEuKvRzlONIZrRFVT2-o-0">
          <mxGeometry x="926.6199999999999" y="368" width="100" height="40" as="geometry" />
        </mxCell>
        <mxCell id="_gN3MFFt-fry-yEMb3th-51" style="edgeStyle=orthogonalEdgeStyle;rounded=0;orthogonalLoop=1;jettySize=auto;html=1;entryX=0;entryY=0.5;entryDx=0;entryDy=0;fontFamily=Helvetica;fontSize=12;fontColor=default;fontStyle=1;labelBackgroundColor=none;flowAnimation=1;movable=0;resizable=0;rotatable=0;deletable=0;editable=0;locked=1;connectable=0;" edge="1" parent="eEuKvRzlONIZrRFVT2-o-0" source="_gN3MFFt-fry-yEMb3th-45" target="_gN3MFFt-fry-yEMb3th-50">
          <mxGeometry relative="1" as="geometry" />
        </mxCell>
        <mxCell id="_gN3MFFt-fry-yEMb3th-115" value="&lt;b style=&quot;font-size: 14px;&quot;&gt;&lt;font style=&quot;font-size: 14px;&quot;&gt;Source Data&lt;/font&gt;&lt;/b&gt;&lt;div style=&quot;font-size: 14px;&quot;&gt;&lt;font style=&quot;font-size: 14px;&quot;&gt;Incoming data from the&lt;/font&gt;&lt;/div&gt;&lt;div style=&quot;font-size: 14px;&quot;&gt;&lt;font style=&quot;font-size: 14px;&quot;&gt;source system stored in&amp;nbsp;&lt;/font&gt;&lt;/div&gt;&lt;div style=&quot;font-size: 14px;&quot;&gt;&lt;font style=&quot;font-size: 14px;&quot;&gt;AWS S3&amp;nbsp; and Archived&lt;/font&gt;&lt;/div&gt;" style="text;html=1;align=center;verticalAlign=middle;resizable=0;points=[];autosize=1;strokeColor=none;fillColor=none;shadow=0;textShadow=0;container=0;movable=0;rotatable=0;deletable=0;editable=0;locked=1;connectable=0;" vertex="1" parent="eEuKvRzlONIZrRFVT2-o-0">
          <mxGeometry x="388.25" y="636" width="180" height="80" as="geometry" />
        </mxCell>
        <mxCell id="_gN3MFFt-fry-yEMb3th-121" value="" style="endArrow=none;dashed=1;html=1;dashPattern=1 3;strokeWidth=2;rounded=0;exitX=0.533;exitY=-0.055;exitDx=0;exitDy=0;exitPerimeter=0;strokeColor=#8F8F8F;movable=0;resizable=0;rotatable=0;deletable=0;editable=0;locked=1;connectable=0;" edge="1" parent="eEuKvRzlONIZrRFVT2-o-0" source="_gN3MFFt-fry-yEMb3th-115" target="_gN3MFFt-fry-yEMb3th-46">
          <mxGeometry width="50" height="50" relative="1" as="geometry">
            <mxPoint x="483.25" y="640" as="sourcePoint" />
            <mxPoint x="533.25" y="590" as="targetPoint" />
          </mxGeometry>
        </mxCell>
        <mxCell id="_gN3MFFt-fry-yEMb3th-8" value="Fedelity Data" style="swimlane;labelBackgroundColor=none;fillColor=#ffe6cc;strokeColor=#d79b00;startSize=30;movable=0;resizable=0;rotatable=0;deletable=0;editable=0;locked=1;connectable=0;fontSize=15;container=0;" vertex="1" parent="eEuKvRzlONIZrRFVT2-o-0">
          <mxGeometry x="82.25" y="392" width="130" height="130" as="geometry">
            <mxRectangle x="5" y="26" width="110" height="30" as="alternateBounds" />
          </mxGeometry>
        </mxCell>
        <mxCell id="_gN3MFFt-fry-yEMb3th-15" value="External Data" style="swimlane;labelBackgroundColor=none;fillColor=#ffe6cc;strokeColor=#d79b00;startSize=30;movable=0;resizable=0;rotatable=0;deletable=0;editable=0;locked=1;connectable=0;fontSize=15;container=0;" vertex="1" parent="eEuKvRzlONIZrRFVT2-o-0">
          <mxGeometry x="82.25" y="522" width="130" height="90" as="geometry">
            <mxRectangle x="-135" y="1936" width="110" height="30" as="alternateBounds" />
          </mxGeometry>
        </mxCell>
        <mxCell id="_gN3MFFt-fry-yEMb3th-9" value="&lt;font style=&quot;font-size: 14px;&quot;&gt;Transactional&lt;/font&gt;" style="text;strokeColor=#6c8ebf;align=center;fillColor=#dae8fc;html=1;verticalAlign=middle;whiteSpace=wrap;rounded=0;labelBackgroundColor=none;labelBorderColor=none;container=0;movable=0;resizable=0;rotatable=0;deletable=0;editable=0;locked=1;connectable=0;" vertex="1" parent="eEuKvRzlONIZrRFVT2-o-0">
          <mxGeometry x="82.25" y="421" width="130" height="20" as="geometry" />
        </mxCell>
        <mxCell id="_gN3MFFt-fry-yEMb3th-10" value="&lt;font style=&quot;font-size: 14px;&quot;&gt;Operational&lt;/font&gt;" style="text;strokeColor=#6c8ebf;align=center;fillColor=#dae8fc;html=1;verticalAlign=middle;whiteSpace=wrap;rounded=0;labelBackgroundColor=none;container=0;movable=0;resizable=0;rotatable=0;deletable=0;editable=0;locked=1;connectable=0;" vertex="1" parent="eEuKvRzlONIZrRFVT2-o-0">
          <mxGeometry x="82.25" y="441" width="130" height="20" as="geometry" />
        </mxCell>
        <mxCell id="_gN3MFFt-fry-yEMb3th-11" value="&lt;font style=&quot;font-size: 14px;&quot;&gt;Master Data&lt;/font&gt;" style="text;strokeColor=#6c8ebf;align=center;fillColor=#dae8fc;html=1;verticalAlign=middle;whiteSpace=wrap;rounded=0;labelBackgroundColor=none;container=0;movable=0;resizable=0;rotatable=0;deletable=0;editable=0;locked=1;connectable=0;" vertex="1" parent="eEuKvRzlONIZrRFVT2-o-0">
          <mxGeometry x="82.25" y="461" width="130" height="20" as="geometry" />
        </mxCell>
        <mxCell id="_gN3MFFt-fry-yEMb3th-12" value="&lt;font style=&quot;font-size: 14px;&quot;&gt;Interactions&lt;/font&gt;" style="text;strokeColor=#6c8ebf;align=center;fillColor=#dae8fc;html=1;verticalAlign=middle;whiteSpace=wrap;rounded=0;labelBackgroundColor=none;container=0;movable=0;resizable=0;rotatable=0;deletable=0;editable=0;locked=1;connectable=0;" vertex="1" parent="eEuKvRzlONIZrRFVT2-o-0">
          <mxGeometry x="82.25" y="481" width="130" height="20" as="geometry" />
        </mxCell>
        <mxCell id="_gN3MFFt-fry-yEMb3th-13" value="&lt;font style=&quot;font-size: 14px;&quot;&gt;Events&lt;/font&gt;" style="text;strokeColor=#6c8ebf;align=center;fillColor=#dae8fc;html=1;verticalAlign=middle;whiteSpace=wrap;rounded=0;labelBackgroundColor=none;container=0;movable=0;resizable=0;rotatable=0;deletable=0;editable=0;locked=1;connectable=0;" vertex="1" parent="eEuKvRzlONIZrRFVT2-o-0">
          <mxGeometry x="82.25" y="501" width="130" height="20" as="geometry" />
        </mxCell>
        <mxCell id="_gN3MFFt-fry-yEMb3th-16" value="&lt;font style=&quot;font-size: 14px;&quot;&gt;Vendor&lt;/font&gt;" style="text;strokeColor=#6c8ebf;align=center;fillColor=#dae8fc;html=1;verticalAlign=middle;whiteSpace=wrap;rounded=0;labelBackgroundColor=none;labelBorderColor=none;container=0;movable=0;resizable=0;rotatable=0;deletable=0;editable=0;locked=1;connectable=0;" vertex="1" parent="eEuKvRzlONIZrRFVT2-o-0">
          <mxGeometry x="82.25" y="552" width="130" height="20" as="geometry" />
        </mxCell>
        <mxCell id="_gN3MFFt-fry-yEMb3th-17" value="&lt;font style=&quot;font-size: 14px;&quot;&gt;Market&lt;/font&gt;" style="text;strokeColor=#6c8ebf;align=center;fillColor=#dae8fc;html=1;verticalAlign=middle;whiteSpace=wrap;rounded=0;labelBackgroundColor=none;container=0;movable=0;resizable=0;rotatable=0;deletable=0;editable=0;locked=1;connectable=0;" vertex="1" parent="eEuKvRzlONIZrRFVT2-o-0">
          <mxGeometry x="82.25" y="572" width="130" height="20" as="geometry" />
        </mxCell>
        <mxCell id="_gN3MFFt-fry-yEMb3th-18" value="&lt;font style=&quot;font-size: 14px;&quot;&gt;3rd Party&lt;/font&gt;" style="text;strokeColor=#6c8ebf;align=center;fillColor=#dae8fc;html=1;verticalAlign=middle;whiteSpace=wrap;rounded=0;labelBackgroundColor=none;container=0;movable=0;resizable=0;rotatable=0;deletable=0;editable=0;locked=1;connectable=0;" vertex="1" parent="eEuKvRzlONIZrRFVT2-o-0">
          <mxGeometry x="82.25" y="592" width="130" height="20" as="geometry" />
        </mxCell>
        <mxCell id="_gN3MFFt-fry-yEMb3th-65" value="Data&lt;div&gt;Tokenization&lt;/div&gt;" style="edgeStyle=orthogonalEdgeStyle;rounded=0;orthogonalLoop=1;jettySize=auto;html=1;exitX=0.5;exitY=1;exitDx=0;exitDy=0;entryX=0;entryY=0.5;entryDx=0;entryDy=0;fontFamily=Helvetica;fontSize=12;fontColor=default;fontStyle=1;labelBackgroundColor=none;strokeWidth=1;flowAnimation=1;movable=0;resizable=0;rotatable=0;deletable=0;editable=0;locked=1;connectable=0;" edge="1" parent="eEuKvRzlONIZrRFVT2-o-0" source="_gN3MFFt-fry-yEMb3th-50" target="_gN3MFFt-fry-yEMb3th-52">
          <mxGeometry x="-0.1291" relative="1" as="geometry">
            <mxPoint as="offset" />
          </mxGeometry>
        </mxCell>
        <mxCell id="_gN3MFFt-fry-yEMb3th-50" value="&lt;font style=&quot;font-size: 14px;&quot;&gt;Landing Zone&lt;/font&gt;" style="rounded=1;whiteSpace=wrap;html=1;absoluteArcSize=1;arcSize=14;strokeWidth=2;strokeColor=#d79b00;align=center;verticalAlign=middle;fontFamily=Helvetica;fontSize=12;fontColor=default;fontStyle=1;labelBackgroundColor=none;fillColor=#ffe6cc;container=0;movable=0;resizable=0;rotatable=0;deletable=0;editable=0;locked=1;connectable=0;" vertex="1" parent="eEuKvRzlONIZrRFVT2-o-0">
          <mxGeometry x="654.61" y="439" width="120" height="54" as="geometry" />
        </mxCell>
        <mxCell id="_gN3MFFt-fry-yEMb3th-66" style="edgeStyle=orthogonalEdgeStyle;rounded=0;orthogonalLoop=1;jettySize=auto;html=1;exitX=0.5;exitY=0;exitDx=0;exitDy=0;entryX=0;entryY=0.25;entryDx=0;entryDy=0;fontFamily=Helvetica;fontSize=12;fontColor=default;fontStyle=1;labelBackgroundColor=none;dashed=1;dashPattern=1 1;strokeWidth=2;flowAnimation=1;movable=0;resizable=0;rotatable=0;deletable=0;editable=0;locked=1;connectable=0;" edge="1" parent="eEuKvRzlONIZrRFVT2-o-0" source="_gN3MFFt-fry-yEMb3th-52" target="_gN3MFFt-fry-yEMb3th-55">
          <mxGeometry relative="1" as="geometry" />
        </mxCell>
        <mxCell id="_gN3MFFt-fry-yEMb3th-52" value="&lt;font style=&quot;font-size: 14px;&quot;&gt;Raw Zone&lt;/font&gt;" style="rounded=1;whiteSpace=wrap;html=1;absoluteArcSize=1;arcSize=14;strokeWidth=2;strokeColor=#6c8ebf;align=center;verticalAlign=middle;fontFamily=Helvetica;fontSize=12;fontStyle=1;labelBackgroundColor=none;fillColor=#dae8fc;container=0;movable=0;resizable=0;rotatable=0;deletable=0;editable=0;locked=1;connectable=0;" vertex="1" parent="eEuKvRzlONIZrRFVT2-o-0">
          <mxGeometry x="806.62" y="515" width="120" height="54" as="geometry" />
        </mxCell>
        <mxCell id="_gN3MFFt-fry-yEMb3th-57" style="edgeStyle=orthogonalEdgeStyle;rounded=0;orthogonalLoop=1;jettySize=auto;html=1;entryX=0;entryY=0.5;entryDx=0;entryDy=0;fontFamily=Helvetica;fontSize=12;fontColor=default;fontStyle=1;labelBackgroundColor=none;flowAnimation=1;movable=0;resizable=0;rotatable=0;deletable=0;editable=0;locked=1;connectable=0;" edge="1" parent="eEuKvRzlONIZrRFVT2-o-0" source="_gN3MFFt-fry-yEMb3th-53" target="_gN3MFFt-fry-yEMb3th-54">
          <mxGeometry relative="1" as="geometry" />
        </mxCell>
        <mxCell id="_gN3MFFt-fry-yEMb3th-53" value="&lt;font style=&quot;font-size: 14px;&quot;&gt;Prepared Zone&lt;/font&gt;" style="rounded=1;whiteSpace=wrap;html=1;absoluteArcSize=1;arcSize=14;strokeWidth=2;strokeColor=#6c8ebf;align=center;verticalAlign=middle;fontFamily=Helvetica;fontSize=12;fontStyle=1;labelBackgroundColor=none;fillColor=#dae8fc;container=0;movable=0;resizable=0;rotatable=0;deletable=0;editable=0;locked=1;connectable=0;" vertex="1" parent="eEuKvRzlONIZrRFVT2-o-0">
          <mxGeometry x="966.25" y="514" width="120" height="54" as="geometry" />
        </mxCell>
        <mxCell id="_gN3MFFt-fry-yEMb3th-58" style="edgeStyle=orthogonalEdgeStyle;rounded=0;orthogonalLoop=1;jettySize=auto;html=1;entryX=0.5;entryY=1;entryDx=0;entryDy=0;fontFamily=Helvetica;fontSize=12;fontColor=default;fontStyle=1;labelBackgroundColor=none;dashed=1;dashPattern=1 1;strokeWidth=2;flowAnimation=1;movable=0;resizable=0;rotatable=0;deletable=0;editable=0;locked=1;connectable=0;" edge="1" parent="eEuKvRzlONIZrRFVT2-o-0" source="_gN3MFFt-fry-yEMb3th-54" target="_gN3MFFt-fry-yEMb3th-55">
          <mxGeometry relative="1" as="geometry" />
        </mxCell>
        <mxCell id="_gN3MFFt-fry-yEMb3th-54" value="&lt;font style=&quot;font-size: 14px;&quot;&gt;Curated Zone&lt;/font&gt;" style="rounded=1;whiteSpace=wrap;html=1;absoluteArcSize=1;arcSize=14;strokeWidth=2;strokeColor=#6c8ebf;align=center;verticalAlign=middle;fontFamily=Helvetica;fontSize=12;fontStyle=1;labelBackgroundColor=none;fillColor=#dae8fc;container=0;movable=0;resizable=0;rotatable=0;deletable=0;editable=0;locked=1;connectable=0;" vertex="1" parent="eEuKvRzlONIZrRFVT2-o-0">
          <mxGeometry x="1140.75" y="514" width="120" height="54" as="geometry" />
        </mxCell>
        <mxCell id="_gN3MFFt-fry-yEMb3th-55" value="&lt;font style=&quot;font-size: 14px;&quot;&gt;Data Lab&lt;/font&gt;&lt;div style=&quot;font-size: 14px;&quot;&gt;&lt;font style=&quot;font-size: 14px;&quot;&gt;Zone&lt;/font&gt;&lt;/div&gt;" style="rounded=1;whiteSpace=wrap;html=1;absoluteArcSize=1;arcSize=14;strokeWidth=2;strokeColor=#6c8ebf;align=center;verticalAlign=middle;fontFamily=Helvetica;fontSize=12;fontStyle=1;labelBackgroundColor=none;fillColor=#dae8fc;container=0;movable=0;resizable=0;rotatable=0;deletable=0;editable=0;locked=1;connectable=0;" vertex="1" parent="eEuKvRzlONIZrRFVT2-o-0">
          <mxGeometry x="1140.75" y="408" width="120" height="54" as="geometry" />
        </mxCell>
        <mxCell id="_gN3MFFt-fry-yEMb3th-56" style="edgeStyle=orthogonalEdgeStyle;rounded=0;orthogonalLoop=1;jettySize=auto;html=1;entryX=-0.045;entryY=0.529;entryDx=0;entryDy=0;entryPerimeter=0;fontFamily=Helvetica;fontSize=12;fontColor=default;fontStyle=1;labelBackgroundColor=none;flowAnimation=1;movable=0;resizable=0;rotatable=0;deletable=0;editable=0;locked=1;connectable=0;" edge="1" parent="eEuKvRzlONIZrRFVT2-o-0" source="_gN3MFFt-fry-yEMb3th-52" target="_gN3MFFt-fry-yEMb3th-53">
          <mxGeometry relative="1" as="geometry" />
        </mxCell>
        <mxCell id="_gN3MFFt-fry-yEMb3th-59" style="edgeStyle=orthogonalEdgeStyle;rounded=0;orthogonalLoop=1;jettySize=auto;html=1;entryX=0.613;entryY=1.012;entryDx=0;entryDy=0;entryPerimeter=0;fontFamily=Helvetica;fontSize=12;fontColor=default;fontStyle=1;labelBackgroundColor=none;exitX=0.555;exitY=1.012;exitDx=0;exitDy=0;exitPerimeter=0;flowAnimation=1;movable=0;resizable=0;rotatable=0;deletable=0;editable=0;locked=1;connectable=0;" edge="1" parent="eEuKvRzlONIZrRFVT2-o-0" source="_gN3MFFt-fry-yEMb3th-52" target="_gN3MFFt-fry-yEMb3th-54">
          <mxGeometry relative="1" as="geometry" />
        </mxCell>
        <mxCell id="_gN3MFFt-fry-yEMb3th-67" value="" style="endArrow=none;dashed=1;html=1;dashPattern=1 3;strokeWidth=2;rounded=0;fontFamily=Helvetica;fontSize=12;fontColor=default;fontStyle=1;labelBackgroundColor=none;exitX=0.5;exitY=0;exitDx=0;exitDy=0;flowAnimation=1;entryX=-0.05;entryY=0.605;entryDx=0;entryDy=0;entryPerimeter=0;movable=0;resizable=0;rotatable=0;deletable=0;editable=0;locked=1;connectable=0;" edge="1" parent="eEuKvRzlONIZrRFVT2-o-0" target="_gN3MFFt-fry-yEMb3th-55">
          <mxGeometry width="50" height="50" relative="1" as="geometry">
            <mxPoint x="1030.25" y="514.0000000000005" as="sourcePoint" />
            <mxPoint x="1139.25" y="430" as="targetPoint" />
            <Array as="points">
              <mxPoint x="1029.25" y="440" />
            </Array>
          </mxGeometry>
        </mxCell>
        <mxCell id="_gN3MFFt-fry-yEMb3th-78" value="" style="shape=image;verticalLabelPosition=bottom;labelBackgroundColor=default;verticalAlign=top;aspect=fixed;imageAspect=0;image=data:image/png,iVBORw0KGgoAAAANSUhEUgAAASwAAACoCAMAAABt9SM9AAAAYFBMVEX///8ptegAr+Ybs+cAsOcTsueN0fC14PX5/f72+/7C5fdHvOprxu3V7fkArea94/ba7/rl9PvN6vib1vLu+P3g8vul2vOAze+t3fRvx+1kxOxYwOs3uOmX1fKDzu/J6PjiZxtEAAALOklEQVR4nO1cC9eiug6lLxTxDYoI6v//lzfpA9pSdOZ8M6N3mb3OmiNYJN1tdpMUviwjEAgEAoFAIBAIBAKBQCAQCAQCgUAgEAgEAoFAIBAIBAKBQCAQCAQCgUAgEAgEAoFAIBD+NTb74HC/eZMd/weouJRqNRyulJS8eqM9n4yKM8D2YQ+PWzwkttLQXDFR2sNS6GO+fKtRH4q9ZAE7hjsmSbcS2KiArKUlSx3fbNdHgsj6DRBZL3Eo3KeXZBWHN9j3Qci55FfLwQuyDldom7/Jzk9Ai/wIftf0PCVreef4tVy/0do5/Eps8/P4Z2/5EOqcPSfrrIT98kMCiU3DOBfoEwe1Xbxqvey395/e8WzpgRnTP7L9DFmb7NFL11DT+n40HAdPNfAxV0y8ar5QbPvTuTWSxYTsFjNkLTop2GeRVUl0B8Uv8DkH4161h67x4lWjFzhwNkI45iKymBJeK3764T3/BAowTTbni85i/xVZsBiyKWKygu9+7Pp/AhfF5BDQ/DOysotUv0GWUpcf3/FPoBGsHw7+HVkuJPgVslyI8X50QrXDwV8ha9+WXWpiQLApfoEswbuPCeBLIcbo+G+QteugddWlvjqOkcEsWbL/oBTxb5O17LPzbZfBfykE0pUgS8nPECuLv03W6pxtN92quLoTp3BrIh+li9tTA1kqSgn3ifBhuaqa9n7xLFrl2m03lzyvVimxO57vTX7xzFjengZxu7yGfx95fuuZ6G55burfMVmHRd7c3R0XjbZ1QlZd9l4nHpEll0Wm2r7ObM34yOK9iNpJ11BW7uwxv9Z+w0pKKR5ZgLrlUgkhFG9d2/1WCQx78bySvI0Er8iVuUKyYdI2kj9h67FVsASetnARWgXY6v6GZO1KrsY7HrdKpcg6QBunSIdGXwGXCEfIMc+2tTocGn200XsRSgROeexNWu0YPmn2IrHamdh1G6SIO2wJt4NuCG77vpJM7pnU/dI/GwzNQvu90PGuZPaOrR8RTLDWac3GEwd+jMmqS0w2zM8K8IeFNKISkXWAVtIwAS5ludehkd3aYrpxZ+yyk4bJMnDGheC8H8/sS8hVA7Hal3YpGKaf5oVjutTfb/cerOA3RxZTeF6WpcIuyHG1h9QOvxHXtoNZCt0ymfBKPSn4Q9Su8Jdz1vdoAfxrxMEja4/3Ubxs1z1SoDO4BFknNM3qEXYILOmuJVrCrODU7LJZlbbrw/CI0W9Mq1AGi/DLdgwyuHceOSlPlk0wa+/IAptK7bCHO9xRDcrXwBW8NaPyQHP5zv6QmM0QIGrnzpVnBP6EQ8AWWq1qnDE4XaZkYa3FjVyJQ3U3tj86sETaH97dLq7vXqgg7EwIWFlf1/Xk7M2PxzyyHpKJMSS58+1qIEsNfcetI+fgC2RuVD3crjQ8QL/VDFdIUOl9TpEF3ucFq7VWlSlZR7y7bdbC8PSjmqJhfNxktmj9MFSJqB5Ua/mM2NoJP9IXnk+dFZZxBmwMDdoNm/E0DLvtbYED6Ov9RdqvoI30ZLTKx3kOOf+Ya6XJgvmqgonZiwRZD5xXthnohwhUEhVxMlxFUEkAZ/GlojaKrHy2NmWQFAVfVirsuzUExcA/cXN+lEP7cPgg1zNneiGG2CbLQe6Cq4f4I0lWzUMlhTNyShbqq3M1ZFOGugMN1cTTijbIcQQf3a62RHpzq45bt/4t8AZtFgPICmtfqND6BMyja9RYWUdGYarHk4Pj6hbjPZJkwf95NGaVisnace+BhCMs2HGwXSaVYFjYIunS80ovXwNbtzB5jJZQHFKYzXFqgKFDGLxCFxv7Rbzm3WxnBkIz7ZxMOD/Gfh39X5qSxaZjgElIQNYFTwxDCBN6UmN9BDcaEaqQnR16Xqn1odW1SD1SbcBqFJzprurlVzVBpLqS8VMSa6V7k1JxWMylvrpVg4gYxbFTuA36lSILhkxOavFXEZB1Rq7GuYSJwGoXAdwk/ShMFUwZnPOFjlTazGz8aGnaB+XUxNo5BHZStt7zSjIIL0ayrkJMt4iczz5Az8y8PeIIOMOXPJCSFFnHlHJWQZyFy67yhloHexEUS2mKRtF4bKG5DzkEnBi44gLvFerBLdLp6AaSDLMqqNvyBVnQ02kwBZea7gsXakHAzjo3nzAS95hIkbWTiVzZD0q1A4yObfU/AZUszaBye0xEZOETRzImq52GXwanm+VLySF0+C9kQdeltgzmUoWLhJ6rnQgWuv9ClrgrnVLIwcmQLMWnmHleIQ+qpLgXUaC8W29BiS9MXDwSyvPZamm9uOrf4y4oTZMVlDkdhqUT4ikdReR6XbSrZKxHKbIeL9yQYTR/ll7Uib79csfR4aICgTeZZYE/qq77qxqWw3so8M9KW0Wls0C0b5asPLEGocCvBiKwFbC3Np09jX12SJF1CANad8uRLKDpYUIHx6l4kl2FiMqjQtoVVbOl83bB7LQ+yzB0eFY0LTDQQzpnydpJp+EjqjG+umgtXpgVHEIJFJlAarKZ0EEklFkyjyxdpIAgRQhLfJsYNhi4yZm6i8LMZhg5zRbzuIIJ24StZTcnXXqSuHAqTRbO/rhXYgy+lzrUAjp62x+ebeLYJ0nWXXgBrcHZC0ptQQdXeWXvhVWOiR/2PNb3OporwV5EoSMcjyvAoQuuUHKeLW5i7VmyMBbk4dwEgRqX9BbEHBg3meAGP0wKx0mywA9F2M9CzydL1kB3OSYcqDiRBEOCuY36tvZ7LllU91z2CuLVaGl5MN9tJ8HygL0ytZh5sjDiD8jeBfksBFiqtGuiXpNLFseJ6UQaZqHMw2YeWYPoLUFi7JK4kHE6WU3OePUsT6w8FE2TCKgC6fKIOChfxLCfeDhPFvwQiOKY8ei42lMxLZeOjYUeoijpS5OlqxmjYhfmaetpPeswFmIwkCu9ccO1LPZlv/jXBPPwFFp1CNRueU8W/4BE2dm1bCGc/DwhSydQ3GwlZEesZ3B/hb0pnx5dfo5kZKaepQssNkmtcV1OF/90lcY8s7GEyEvw3NKz6kdp8+D2IkKxgm5LzsbGR8ZlWDkYpMs3H2MzIXl5XZd87OczsrK1zibZur1KJfzcVt+E+7+P1MUyPLcV9sDqqJRd22pLVHlJlpVxajOhjwvkR/F+3YIpusI9XendXkSY+prthWEvYrM12wlB7ck8qiW2/uJf6GBUmH0CpcxXs4m0MTfYJog0Ez15OKUVLosbhGQNAcDBWGciH97MbVigjLuKj33Sy5gi+9Su+76PJ82pi/ciymFXI3DGC6QIfVRj2VztVpiSLsKHUY5mVqO8PQvcPMNOwRWT1HwB9o9Ha6maqEHnX1RJ5UnyhUn8UaE47s2AETJpTKmkG7g92I6GBLtyEeqAw6KZypEvbIHcHxJxw/JRNW1TeXOkukaMFuGqsdzl7bqtUgFutfaGp2ibOMM6dK13Kg/3JDfnZt3eF3VgRGzMsvGy3AItAVN+8QnQKljoptv3QtLrThYrFiSJyQdDEjW/b8SpjOo6M89nxdXkL0S0c/GErHif4vtQTah69pik+Oo3NZtUZfXZA7gyXsW/B2ERdPbR7qCc+rXC5b80wNvVzEsDO1/WPuOlgXdgJEtBTD7/Ooq3ef+9ZDk3NI+GPHvRaeF88Xvd0Ai82zh9/r6h2cP/YoHHnQI+PM724uVMSH35zM7212CMM1+/I/3dMWkAeqH8N0Bk/QaIrN/A8OdV7DH9eZVnMGRN/nDPW236WFzMn4QKNyyevSHy1bio6VbYR70O9ll4uslKIBAIBAKBQCAQCAQCgUAgEAgEAoFAIBAIBAKBQCAQCAQCgUAgEAgEAoFAIBAIBAKBQCAQ/hT+B5U1ek/vaR+oAAAAAElFTkSuQmCC;imageBorder=default;imageBackground=none;container=0;movable=0;resizable=0;rotatable=0;deletable=0;editable=0;locked=1;connectable=0;" vertex="1" parent="eEuKvRzlONIZrRFVT2-o-0">
          <mxGeometry x="693.25" y="298" width="101.21" height="56.68" as="geometry" />
        </mxCell>
        <mxCell id="_gN3MFFt-fry-yEMb3th-92" value="&lt;b&gt;&lt;font style=&quot;font-size: 15px;&quot; face=&quot;Helvetica&quot;&gt;DATA STORAGE&lt;/font&gt;&lt;/b&gt;" style="rounded=0;whiteSpace=wrap;html=1;hachureGap=4;fontFamily=Architects Daughter;fontSource=https%3A%2F%2Ffonts.googleapis.com%2Fcss%3Ffamily%3DArchitects%2BDaughter;fillColor=#fad7ac;strokeColor=#b46504;container=0;movable=0;resizable=0;rotatable=0;deletable=0;editable=0;locked=1;connectable=0;" vertex="1" parent="eEuKvRzlONIZrRFVT2-o-0">
          <mxGeometry x="528.52" y="242" width="787.73" height="50" as="geometry" />
        </mxCell>
        <mxCell id="_gN3MFFt-fry-yEMb3th-93" value="&lt;b&gt;&lt;font style=&quot;font-size: 15px;&quot; face=&quot;Helvetica&quot;&gt;DATA PREPARATION&lt;/font&gt;&lt;/b&gt;" style="rounded=0;whiteSpace=wrap;html=1;hachureGap=4;fontFamily=Architects Daughter;fontSource=https%3A%2F%2Ffonts.googleapis.com%2Fcss%3Ffamily%3DArchitects%2BDaughter;fillColor=#fad7ac;strokeColor=#b46504;container=0;movable=0;resizable=0;rotatable=0;deletable=0;editable=0;locked=1;connectable=0;" vertex="1" parent="eEuKvRzlONIZrRFVT2-o-0">
          <mxGeometry x="641.89" y="180" width="674.36" height="50" as="geometry" />
        </mxCell>
        <mxCell id="_gN3MFFt-fry-yEMb3th-94" value="&lt;b&gt;&lt;font style=&quot;font-size: 15px;&quot; face=&quot;Helvetica&quot;&gt;DATA INGESTION&lt;/font&gt;&lt;/b&gt;" style="rounded=0;whiteSpace=wrap;html=1;hachureGap=4;fontFamily=Architects Daughter;fontSource=https%3A%2F%2Ffonts.googleapis.com%2Fcss%3Ffamily%3DArchitects%2BDaughter;fillColor=#fad7ac;strokeColor=#b46504;container=0;movable=0;resizable=0;rotatable=0;deletable=0;editable=0;locked=1;connectable=0;" vertex="1" parent="eEuKvRzlONIZrRFVT2-o-0">
          <mxGeometry x="211.25" y="120" width="540.75" height="50" as="geometry" />
        </mxCell>
        <mxCell id="_gN3MFFt-fry-yEMb3th-95" value="&lt;div style=&quot;text-align: start;&quot;&gt;&lt;span style=&quot;background-color: initial; font-size: 15px; text-wrap: nowrap;&quot;&gt;&lt;font face=&quot;monospace&quot;&gt;&lt;b style=&quot;&quot;&gt;DATA CONSUMPTION&lt;/b&gt;&lt;/font&gt;&lt;/span&gt;&lt;/div&gt;" style="rounded=0;whiteSpace=wrap;html=1;hachureGap=4;fontFamily=Architects Daughter;fontSource=https%3A%2F%2Ffonts.googleapis.com%2Fcss%3Ffamily%3DArchitects%2BDaughter;fillColor=#fad7ac;strokeColor=#b46504;container=0;movable=0;resizable=0;rotatable=0;deletable=0;editable=0;locked=1;connectable=0;" vertex="1" parent="eEuKvRzlONIZrRFVT2-o-0">
          <mxGeometry x="760.25" y="120" width="710" height="50" as="geometry" />
        </mxCell>
        <mxCell id="_gN3MFFt-fry-yEMb3th-96" value="&lt;font size=&quot;1&quot; face=&quot;Helvetica&quot;&gt;&lt;b style=&quot;font-size: 15px;&quot;&gt;DATA GOVERNANCS | CATALOG | STANDARDS&lt;/b&gt;&lt;/font&gt;" style="rounded=0;whiteSpace=wrap;html=1;hachureGap=4;fontFamily=Architects Daughter;fontSource=https%3A%2F%2Ffonts.googleapis.com%2Fcss%3Ffamily%3DArchitects%2BDaughter;fillColor=#fad7ac;strokeColor=#b46504;container=0;movable=0;resizable=0;rotatable=0;deletable=0;editable=0;locked=1;connectable=0;" vertex="1" parent="eEuKvRzlONIZrRFVT2-o-0">
          <mxGeometry x="761.25" y="60" width="556" height="50" as="geometry" />
        </mxCell>
        <mxCell id="_gN3MFFt-fry-yEMb3th-97" value="&lt;font size=&quot;1&quot; face=&quot;Helvetica&quot;&gt;&lt;b style=&quot;font-size: 15px;&quot;&gt;SECURITY | OPERATIONS | MONITORING | SUPPORT&lt;/b&gt;&lt;/font&gt;" style="rounded=0;whiteSpace=wrap;html=1;hachureGap=4;fontFamily=Architects Daughter;fontSource=https%3A%2F%2Ffonts.googleapis.com%2Fcss%3Ffamily%3DArchitects%2BDaughter;fillColor=#fad7ac;strokeColor=#b46504;container=0;movable=0;resizable=0;rotatable=0;deletable=0;editable=0;locked=1;connectable=0;" vertex="1" parent="eEuKvRzlONIZrRFVT2-o-0">
          <mxGeometry x="211.25" width="1260" height="50" as="geometry" />
        </mxCell>
        <mxCell id="_gN3MFFt-fry-yEMb3th-120" value="&lt;b style=&quot;font-size: 14px;&quot;&gt;&lt;font style=&quot;font-size: 14px;&quot;&gt;Self-Service&lt;/font&gt;&lt;/b&gt;&lt;div style=&quot;font-size: 14px;&quot;&gt;&lt;font style=&quot;font-size: 14px;&quot;&gt;Read-only access to the&amp;nbsp;&lt;/font&gt;&lt;/div&gt;&lt;div style=&quot;font-size: 14px;&quot;&gt;&lt;font style=&quot;font-size: 14px;&quot;&gt;other zones as&lt;/font&gt;&lt;/div&gt;&lt;div style=&quot;font-size: 14px;&quot;&gt;&lt;font style=&quot;font-size: 14px;&quot;&gt;appropriate and the&lt;/font&gt;&lt;/div&gt;&lt;div style=&quot;font-size: 14px;&quot;&gt;&lt;font style=&quot;font-size: 14px;&quot;&gt;ability for users to upload&lt;/font&gt;&lt;/div&gt;&lt;div style=&quot;font-size: 14px;&quot;&gt;&lt;font style=&quot;font-size: 14px;&quot;&gt;data and create their own&lt;/font&gt;&lt;/div&gt;&lt;div style=&quot;font-size: 14px;&quot;&gt;&lt;font style=&quot;font-size: 14px;&quot;&gt;data sets.&lt;/font&gt;&lt;/div&gt;" style="text;html=1;align=center;verticalAlign=middle;resizable=0;points=[];autosize=1;strokeColor=none;fillColor=none;container=0;movable=0;rotatable=0;deletable=0;editable=0;locked=1;connectable=0;" vertex="1" parent="eEuKvRzlONIZrRFVT2-o-0">
          <mxGeometry x="1351.25" y="220" width="180" height="130" as="geometry" />
        </mxCell>
        <mxCell id="_gN3MFFt-fry-yEMb3th-68" value="" style="rounded=0;whiteSpace=wrap;html=1;rotation=90;container=0;movable=0;resizable=0;rotatable=0;deletable=0;editable=0;locked=1;connectable=0;" vertex="1" parent="eEuKvRzlONIZrRFVT2-o-0">
          <mxGeometry x="1385.6750000000002" y="397.0049999999999" width="179.43" height="165.22" as="geometry" />
        </mxCell>
        <mxCell id="_gN3MFFt-fry-yEMb3th-69" value="&lt;font style=&quot;font-size: 13px;&quot;&gt;Data&lt;/font&gt;&lt;div style=&quot;font-size: 13px;&quot;&gt;&lt;font style=&quot;font-size: 13px;&quot;&gt;Exploration&lt;/font&gt;&lt;/div&gt;" style="html=1;whiteSpace=wrap;strokeColor=#36393d;align=center;verticalAlign=middle;fontFamily=Helvetica;fontSize=12;fontStyle=1;labelBackgroundColor=none;fillColor=#cce5ff;container=0;movable=0;resizable=0;rotatable=0;deletable=0;editable=0;locked=1;connectable=0;" vertex="1" parent="eEuKvRzlONIZrRFVT2-o-0">
          <mxGeometry x="1402.7050000000002" y="405.0049999999999" width="145.38" height="30" as="geometry" />
        </mxCell>
        <mxCell id="_gN3MFFt-fry-yEMb3th-70" value="&lt;font style=&quot;font-size: 13px;&quot;&gt;AI / ML Model&lt;/font&gt;&lt;div style=&quot;font-size: 13px;&quot;&gt;&lt;font style=&quot;font-size: 13px;&quot;&gt;Development&lt;/font&gt;&lt;/div&gt;" style="html=1;whiteSpace=wrap;strokeColor=#36393d;align=center;verticalAlign=middle;fontFamily=Helvetica;fontSize=12;fontStyle=1;labelBackgroundColor=none;fillColor=#cce5ff;container=0;movable=0;resizable=0;rotatable=0;deletable=0;editable=0;locked=1;connectable=0;" vertex="1" parent="eEuKvRzlONIZrRFVT2-o-0">
          <mxGeometry x="1402.7050000000002" y="434.9949999999999" width="145.38" height="30" as="geometry" />
        </mxCell>
        <mxCell id="_gN3MFFt-fry-yEMb3th-71" value="&lt;font style=&quot;font-size: 13px;&quot;&gt;Predicative&amp;nbsp;&lt;/font&gt;&lt;div style=&quot;font-size: 13px;&quot;&gt;&lt;font style=&quot;font-size: 13px;&quot;&gt;Analysis&lt;/font&gt;&lt;/div&gt;" style="html=1;whiteSpace=wrap;strokeColor=#36393d;align=center;verticalAlign=middle;fontFamily=Helvetica;fontSize=12;fontStyle=1;labelBackgroundColor=none;fillColor=#cce5ff;container=0;movable=0;resizable=0;rotatable=0;deletable=0;editable=0;locked=1;connectable=0;" vertex="1" parent="eEuKvRzlONIZrRFVT2-o-0">
          <mxGeometry x="1402.7050000000002" y="464.9949999999999" width="145.38" height="30" as="geometry" />
        </mxCell>
        <mxCell id="_gN3MFFt-fry-yEMb3th-72" value="&lt;font style=&quot;font-size: 13px;&quot;&gt;Descriptive&lt;/font&gt;&lt;div style=&quot;font-size: 13px;&quot;&gt;&lt;font style=&quot;font-size: 13px;&quot;&gt;Analysis&lt;/font&gt;&lt;/div&gt;" style="html=1;whiteSpace=wrap;strokeColor=#36393d;align=center;verticalAlign=middle;fontFamily=Helvetica;fontSize=12;fontStyle=1;labelBackgroundColor=none;fillColor=#cce5ff;container=0;movable=0;resizable=0;rotatable=0;deletable=0;editable=0;locked=1;connectable=0;" vertex="1" parent="eEuKvRzlONIZrRFVT2-o-0">
          <mxGeometry x="1402.7050000000002" y="494.9949999999999" width="145.38" height="30" as="geometry" />
        </mxCell>
        <mxCell id="_gN3MFFt-fry-yEMb3th-73" value="&lt;font style=&quot;font-size: 13px;&quot;&gt;Reporting / BI&amp;nbsp;&amp;nbsp;&lt;/font&gt;" style="html=1;whiteSpace=wrap;strokeColor=#36393d;align=center;verticalAlign=middle;fontFamily=Helvetica;fontSize=12;fontStyle=1;labelBackgroundColor=none;fillColor=#cce5ff;container=0;movable=0;resizable=0;rotatable=0;deletable=0;editable=0;locked=1;connectable=0;" vertex="1" parent="eEuKvRzlONIZrRFVT2-o-0">
          <mxGeometry x="1402.6950000000002" y="524.9949999999999" width="145.38" height="30" as="geometry">
            <mxRectangle x="5.375" y="127.69500000000016" width="110" height="30" as="alternateBounds" />
          </mxGeometry>
        </mxCell>
      </root>
    </mxGraphModel>
  </diagram>
</mxfile>
